<svg width="1280" height="720" viewBox="0 0 1280 720" fill="none" xmlns="http://www.w3.org/2000/svg">
<rect width="1280" height="720" fill="#F3F7FA"/>
<path d="M237.389 37.5333V43H233.815V27.131H239.414C243.413 27.131 245.412 28.8167 245.412 32.1883C245.412 33.7818 244.837 35.0729 243.686 36.0615C242.542 37.0427 241.012 37.5333 239.093 37.5333H237.389ZM237.389 29.8754V34.822H238.795C240.698 34.822 241.65 33.9884 241.65 32.3211C241.65 30.6906 240.698 29.8754 238.795 29.8754H237.389ZM257.411 43H247.894V27.131H257.045V30.0414H251.468V33.5715H256.658V36.4709H251.468V40.1006H257.411V43ZM273.426 43H269.32L266.853 38.9165C266.668 38.6067 266.491 38.33 266.321 38.0866C266.152 37.8431 265.978 37.6365 265.801 37.4669C265.632 37.2898 265.451 37.157 265.259 37.0685C265.075 36.9726 264.872 36.9246 264.65 36.9246H263.688V43H260.113V27.131H265.779C269.63 27.131 271.556 28.5696 271.556 31.4468C271.556 32.0001 271.471 32.5129 271.301 32.985C271.132 33.4498 270.892 33.8703 270.582 34.2466C270.272 34.6228 269.896 34.9474 269.453 35.2204C269.018 35.4934 268.531 35.7073 267.992 35.8623V35.9065C268.228 35.9803 268.457 36.102 268.679 36.2717C268.9 36.434 269.114 36.6258 269.32 36.8472C269.527 37.0685 269.722 37.3082 269.907 37.5665C270.099 37.8173 270.272 38.0644 270.427 38.3079L273.426 43ZM263.688 29.809V34.2245H265.237C266.004 34.2245 266.62 34.0031 267.085 33.5605C267.557 33.1104 267.793 32.5534 267.793 31.8895C267.793 30.5025 266.963 29.809 265.303 29.809H263.688ZM284.251 30.0414H278.652V33.9367H283.798V36.8361H278.652V43H275.077V27.131H284.251V30.0414ZM293.737 43.2767C291.465 43.2767 289.613 42.5389 288.182 41.0634C286.751 39.5805 286.035 37.6513 286.035 35.2757C286.035 32.7674 286.762 30.7386 288.215 29.1893C289.669 27.64 291.594 26.8654 293.992 26.8654C296.257 26.8654 298.087 27.6068 299.481 29.0897C300.883 30.5726 301.583 32.5276 301.583 34.9548C301.583 37.4484 300.857 39.4588 299.403 40.9859C297.957 42.5131 296.069 43.2767 293.737 43.2767ZM293.892 29.9418C292.638 29.9418 291.642 30.414 290.905 31.3583C290.167 32.2952 289.798 33.5383 289.798 35.0876C289.798 36.659 290.167 37.9021 290.905 38.817C291.642 39.7318 292.609 40.1892 293.804 40.1892C295.036 40.1892 296.013 39.7465 296.736 38.8612C297.459 37.9685 297.821 36.7328 297.821 35.154C297.821 33.5088 297.47 32.2288 296.77 31.314C296.069 30.3992 295.11 29.9418 293.892 29.9418ZM317.698 43H313.593L311.125 38.9165C310.941 38.6067 310.764 38.33 310.594 38.0866C310.424 37.8431 310.251 37.6365 310.074 37.4669C309.904 37.2898 309.723 37.157 309.531 37.0685C309.347 36.9726 309.144 36.9246 308.923 36.9246H307.96V43H304.386V27.131H310.052C313.903 27.131 315.828 28.5696 315.828 31.4468C315.828 32.0001 315.743 32.5129 315.574 32.985C315.404 33.4498 315.164 33.8703 314.854 34.2466C314.545 34.6228 314.168 34.9474 313.726 35.2204C313.29 35.4934 312.803 35.7073 312.265 35.8623V35.9065C312.501 35.9803 312.73 36.102 312.951 36.2717C313.172 36.434 313.386 36.6258 313.593 36.8472C313.799 37.0685 313.995 37.3082 314.179 37.5665C314.371 37.8173 314.545 38.0644 314.699 38.3079L317.698 43ZM307.96 29.809V34.2245H309.509C310.277 34.2245 310.893 34.0031 311.357 33.5605C311.83 33.1104 312.066 32.5534 312.066 31.8895C312.066 30.5025 311.236 29.809 309.576 29.809H307.96ZM337.432 43H333.902V33.5051C333.902 32.4797 333.946 31.3472 334.035 30.1078H333.946C333.762 31.0816 333.596 31.7825 333.448 32.2104L329.73 43H326.808L323.024 32.3211C322.92 32.0333 322.754 31.2956 322.526 30.1078H322.426C322.522 31.6718 322.57 33.044 322.57 34.2245V43H319.35V27.131H324.584L327.826 36.5373C328.085 37.2898 328.273 38.046 328.391 38.8059H328.457C328.656 37.928 328.867 37.1644 329.088 36.5152L332.33 27.131H337.432V43ZM355.152 43H351.256L350.127 39.4699H344.484L343.366 43H339.493L345.269 27.131H349.508L355.152 43ZM349.309 36.7254L347.604 31.3915C347.479 30.9931 347.39 30.5173 347.339 29.9639H347.25C347.213 30.4287 347.121 30.8898 346.974 31.3472L345.247 36.7254H349.309ZM371.565 43H367.958L361.418 33.0293C361.034 32.4465 360.768 32.0075 360.621 31.7124H360.577C360.636 32.2731 360.665 33.1289 360.665 34.2798V43H357.29V27.131H361.141L367.438 36.7918C367.725 37.2271 367.991 37.6587 368.234 38.0866H368.279C368.22 37.7177 368.19 36.991 368.19 35.9065V27.131H371.565V43ZM386.729 42.4356C385.57 42.9963 384.058 43.2767 382.191 43.2767C379.757 43.2767 377.842 42.561 376.448 41.1298C375.054 39.6986 374.356 37.7915 374.356 35.4085C374.356 32.8707 375.138 30.8124 376.703 29.2336C378.274 27.6548 380.31 26.8654 382.811 26.8654C384.36 26.8654 385.666 27.0609 386.729 27.4519V30.8935C385.666 30.259 384.456 29.9418 383.099 29.9418C381.609 29.9418 380.406 30.4103 379.491 31.3472C378.576 32.2842 378.119 33.5531 378.119 35.154C378.119 36.6885 378.551 37.9132 379.414 38.828C380.277 39.7355 381.439 40.1892 382.9 40.1892C384.294 40.1892 385.57 39.8498 386.729 39.1711V42.4356ZM399.169 43H389.652V27.131H398.804V30.0414H393.227V33.5715H398.417V36.4709H393.227V40.1006H399.169V43ZM419.669 42.4356C418.511 42.9963 416.998 43.2767 415.132 43.2767C412.697 43.2767 410.783 42.561 409.389 41.1298C407.994 39.6986 407.297 37.7915 407.297 35.4085C407.297 32.8707 408.079 30.8124 409.643 29.2336C411.215 27.6548 413.251 26.8654 415.752 26.8654C417.301 26.8654 418.607 27.0609 419.669 27.4519V30.8935C418.607 30.259 417.397 29.9418 416.039 29.9418C414.549 29.9418 413.347 30.4103 412.432 31.3472C411.517 32.2842 411.06 33.5531 411.06 35.154C411.06 36.6885 411.491 37.9132 412.354 38.828C413.218 39.7355 414.379 40.1892 415.84 40.1892C417.235 40.1892 418.511 39.8498 419.669 39.1711V42.4356ZM429.012 43.2767C426.739 43.2767 424.887 42.5389 423.456 41.0634C422.025 39.5805 421.309 37.6513 421.309 35.2757C421.309 32.7674 422.036 30.7386 423.489 29.1893C424.943 27.64 426.868 26.8654 429.266 26.8654C431.531 26.8654 433.361 27.6068 434.755 29.0897C436.157 30.5726 436.858 32.5276 436.858 34.9548C436.858 37.4484 436.131 39.4588 434.677 40.9859C433.231 42.5131 431.343 43.2767 429.012 43.2767ZM429.166 29.9418C427.912 29.9418 426.916 30.414 426.179 31.3583C425.441 32.2952 425.072 33.5383 425.072 35.0876C425.072 36.659 425.441 37.9021 426.179 38.817C426.916 39.7318 427.883 40.1892 429.078 40.1892C430.31 40.1892 431.287 39.7465 432.01 38.8612C432.733 37.9685 433.095 36.7328 433.095 35.154C433.095 33.5088 432.745 32.2288 432.044 31.314C431.343 30.3992 430.384 29.9418 429.166 29.9418ZM457.742 43H454.212V33.5051C454.212 32.4797 454.256 31.3472 454.345 30.1078H454.256C454.072 31.0816 453.906 31.7825 453.758 32.2104L450.04 43H447.118L443.334 32.3211C443.23 32.0333 443.064 31.2956 442.836 30.1078H442.736C442.832 31.6718 442.88 33.044 442.88 34.2245V43H439.66V27.131H444.894L448.136 36.5373C448.395 37.2898 448.583 38.046 448.701 38.8059H448.767C448.966 37.928 449.177 37.1644 449.398 36.5152L452.64 27.131H457.742V43ZM471.024 43H461.507V27.131H470.659V30.0414H465.081V33.5715H470.271V36.4709H465.081V40.1006H471.024V43ZM487.039 43H482.934L480.466 38.9165C480.282 38.6067 480.104 38.33 479.935 38.0866C479.765 37.8431 479.592 37.6365 479.415 37.4669C479.245 37.2898 479.064 37.157 478.872 37.0685C478.688 36.9726 478.485 36.9246 478.264 36.9246H477.301V43H473.727V27.131H479.393C483.244 27.131 485.169 28.5696 485.169 31.4468C485.169 32.0001 485.084 32.5129 484.915 32.985C484.745 33.4498 484.505 33.8703 484.195 34.2466C483.885 34.6228 483.509 34.9474 483.067 35.2204C482.631 35.4934 482.144 35.7073 481.606 35.8623V35.9065C481.842 35.9803 482.071 36.102 482.292 36.2717C482.513 36.434 482.727 36.6258 482.934 36.8472C483.14 37.0685 483.336 37.3082 483.52 37.5665C483.712 37.8173 483.885 38.0644 484.04 38.3079L487.039 43ZM477.301 29.809V34.2245H478.85C479.618 34.2245 480.234 34.0031 480.698 33.5605C481.171 33.1104 481.407 32.5534 481.407 31.8895C481.407 30.5025 480.577 29.809 478.917 29.809H477.301ZM499.845 42.4356C498.687 42.9963 497.175 43.2767 495.308 43.2767C492.874 43.2767 490.959 42.561 489.565 41.1298C488.171 39.6986 487.473 37.7915 487.473 35.4085C487.473 32.8707 488.255 30.8124 489.819 29.2336C491.391 27.6548 493.427 26.8654 495.928 26.8654C497.477 26.8654 498.783 27.0609 499.845 27.4519V30.8935C498.783 30.259 497.573 29.9418 496.216 29.9418C494.725 29.9418 493.523 30.4103 492.608 31.3472C491.693 32.2842 491.236 33.5531 491.236 35.154C491.236 36.6885 491.667 37.9132 492.531 38.828C493.394 39.7355 494.556 40.1892 496.017 40.1892C497.411 40.1892 498.687 39.8498 499.845 39.1711V42.4356ZM506.344 43H502.769V27.131H506.344V43ZM524.074 43H520.179L519.05 39.4699H513.407L512.289 43H508.416L514.192 27.131H518.431L524.074 43ZM518.231 36.7254L516.527 31.3915C516.402 30.9931 516.313 30.5173 516.262 29.9639H516.173C516.136 30.4287 516.044 30.8898 515.896 31.3472L514.17 36.7254H518.231ZM535.663 43H526.213V27.131H529.787V40.1006H535.663V43Z" fill="#4E4E4E"/>
<path d="M235.54 57.7217V51.2273H237.334C239.622 51.2273 240.767 52.2825 240.767 54.3929C240.767 55.3953 240.448 56.2015 239.811 56.8114C239.177 57.4182 238.327 57.7217 237.261 57.7217H235.54ZM236.301 51.9156V57.0333H237.27C238.122 57.0333 238.785 56.8053 239.259 56.3494C239.733 55.8935 239.97 55.2474 239.97 54.4111C239.97 52.7474 239.085 51.9156 237.316 51.9156H236.301ZM248.671 57.7217H247.828L247.14 55.9011H244.386L243.739 57.7217H242.892L245.383 51.2273H246.171L248.671 57.7217ZM246.891 55.2172L245.872 52.4501C245.839 52.3595 245.805 52.2146 245.772 52.0153H245.754C245.724 52.1995 245.689 52.3444 245.65 52.4501L244.64 55.2172H246.891ZM251.153 57.459V56.5623C251.256 56.6529 251.378 56.7344 251.52 56.8068C251.665 56.8793 251.816 56.9412 251.973 56.9925C252.133 57.0408 252.293 57.0786 252.453 57.1058C252.613 57.1329 252.761 57.1465 252.897 57.1465C253.365 57.1465 253.714 57.0605 253.943 56.8884C254.176 56.7132 254.292 56.4626 254.292 56.1366C254.292 55.9615 254.253 55.809 254.174 55.6792C254.099 55.5493 253.993 55.4316 253.857 55.3259C253.721 55.2172 253.56 55.1145 253.373 55.0179C253.188 54.9183 252.989 54.8141 252.775 54.7054C252.548 54.5907 252.337 54.4745 252.141 54.3567C251.945 54.239 251.774 54.1091 251.629 53.9672C251.484 53.8253 251.369 53.6653 251.285 53.4872C251.203 53.306 251.163 53.0947 251.163 52.8531C251.163 52.5572 251.227 52.3006 251.357 52.0832C251.487 51.8628 251.658 51.6817 251.869 51.5397C252.08 51.3978 252.32 51.2922 252.589 51.2227C252.861 51.1533 253.137 51.1186 253.418 51.1186C254.058 51.1186 254.524 51.1956 254.817 51.3495V52.2055C254.434 51.9398 253.942 51.807 253.341 51.807C253.175 51.807 253.009 51.8251 252.843 51.8613C252.677 51.8945 252.529 51.9504 252.399 52.0289C252.269 52.1074 252.163 52.2085 252.082 52.3323C252 52.4561 251.96 52.6071 251.96 52.7852C251.96 52.9512 251.99 53.0947 252.05 53.2154C252.114 53.3362 252.206 53.4464 252.326 53.546C252.447 53.6457 252.594 53.7423 252.766 53.8359C252.941 53.9295 253.142 54.0321 253.368 54.1439C253.601 54.2586 253.821 54.3794 254.029 54.5062C254.238 54.633 254.42 54.7734 254.577 54.9274C254.734 55.0813 254.858 55.2519 254.949 55.4391C255.042 55.6263 255.089 55.8407 255.089 56.0822C255.089 56.4023 255.026 56.674 254.899 56.8974C254.775 57.1178 254.606 57.2975 254.392 57.4364C254.18 57.5752 253.936 57.6749 253.658 57.7353C253.38 57.7987 253.087 57.8304 252.779 57.8304C252.677 57.8304 252.55 57.8213 252.399 57.8032C252.248 57.7881 252.094 57.7639 251.937 57.7307C251.78 57.7005 251.631 57.6628 251.489 57.6175C251.35 57.5692 251.238 57.5164 251.153 57.459ZM263.093 57.7217H262.332V54.7598H258.971V57.7217H258.21V51.2273H258.971V54.0759H262.332V51.2273H263.093V57.7217ZM266.622 57.7217V51.2273H268.469C269.031 51.2273 269.476 51.3646 269.805 51.6394C270.135 51.9141 270.299 52.2719 270.299 52.7127C270.299 53.0811 270.199 53.4011 270 53.6729C269.801 53.9446 269.526 54.1378 269.176 54.2526V54.2707C269.614 54.322 269.964 54.4881 270.227 54.7688C270.489 55.0466 270.621 55.4089 270.621 55.8558C270.621 56.4113 270.421 56.8612 270.023 57.2054C269.624 57.5496 269.122 57.7217 268.515 57.7217H266.622ZM267.383 51.9156V54.0125H268.161C268.578 54.0125 268.906 53.9129 269.144 53.7136C269.383 53.5113 269.502 53.2275 269.502 52.8622C269.502 52.2312 269.087 51.9156 268.257 51.9156H267.383ZM267.383 54.6964V57.0333H268.415C268.862 57.0333 269.208 56.9276 269.452 56.7163C269.7 56.5049 269.824 56.2151 269.824 55.8467C269.824 55.0798 269.301 54.6964 268.257 54.6964H267.383ZM276.382 57.8304C275.462 57.8304 274.723 57.5269 274.168 56.9201C273.615 56.3132 273.339 55.5237 273.339 54.5515C273.339 53.5068 273.621 52.6735 274.186 52.0515C274.751 51.4295 275.519 51.1186 276.491 51.1186C277.388 51.1186 278.109 51.4205 278.656 52.0243C279.205 52.6282 279.48 53.4177 279.48 54.3929C279.48 55.4527 279.199 56.2906 278.638 56.9065C278.076 57.5224 277.324 57.8304 276.382 57.8304ZM276.437 51.807C275.754 51.807 275.2 52.053 274.775 52.5452C274.349 53.0373 274.136 53.6834 274.136 54.4835C274.136 55.2836 274.343 55.9282 274.757 56.4174C275.173 56.9035 275.715 57.1465 276.382 57.1465C277.095 57.1465 277.657 56.914 278.067 56.4491C278.478 55.9841 278.683 55.3334 278.683 54.4971C278.683 53.6396 278.484 52.9769 278.085 52.5089C277.687 52.0409 277.137 51.807 276.437 51.807ZM287.384 57.7217H286.542L285.853 55.9011H283.1L282.452 57.7217H281.605L284.096 51.2273H284.884L287.384 57.7217ZM285.604 55.2172L284.585 52.4501C284.552 52.3595 284.519 52.2146 284.486 52.0153H284.467C284.437 52.1995 284.403 52.3444 284.363 52.4501L283.353 55.2172H285.604ZM294.826 57.7217H293.92L292.833 55.9011C292.734 55.732 292.637 55.5886 292.543 55.4708C292.45 55.3501 292.353 55.2519 292.254 55.1764C292.157 55.101 292.051 55.0466 291.937 55.0134C291.825 54.9772 291.698 54.9591 291.556 54.9591H290.931V57.7217H290.17V51.2273H292.109C292.393 51.2273 292.654 51.2635 292.892 51.3359C293.134 51.4054 293.342 51.5126 293.517 51.6575C293.695 51.8024 293.834 51.9836 293.934 52.201C294.034 52.4153 294.083 52.6674 294.083 52.9573C294.083 53.1837 294.049 53.3921 293.979 53.5823C293.913 53.7695 293.816 53.937 293.689 54.085C293.566 54.2329 293.415 54.3597 293.236 54.4654C293.061 54.5681 292.864 54.6481 292.643 54.7054V54.7236C292.752 54.7719 292.845 54.8277 292.924 54.8911C293.005 54.9515 293.082 55.024 293.155 55.1085C293.227 55.193 293.298 55.2897 293.368 55.3984C293.44 55.504 293.52 55.6278 293.608 55.7697L294.826 57.7217ZM290.931 51.9156V54.2707H291.964C292.154 54.2707 292.329 54.242 292.489 54.1846C292.652 54.1273 292.793 54.0457 292.91 53.9401C293.028 53.8314 293.12 53.7 293.187 53.546C293.253 53.389 293.286 53.2139 293.286 53.0207C293.286 52.6735 293.173 52.4033 292.947 52.21C292.723 52.0138 292.399 51.9156 291.973 51.9156H290.931ZM297.549 57.7217V51.2273H299.342C301.631 51.2273 302.775 52.2825 302.775 54.3929C302.775 55.3953 302.457 56.2015 301.82 56.8114C301.186 57.4182 300.336 57.7217 299.27 57.7217H297.549ZM298.31 51.9156V57.0333H299.279C300.13 57.0333 300.793 56.8053 301.267 56.3494C301.741 55.8935 301.978 55.2474 301.978 54.4111C301.978 52.7474 301.094 51.9156 299.324 51.9156H298.31ZM310.25 57.7217V51.2273H312.043C314.332 51.2273 315.476 52.2825 315.476 54.3929C315.476 55.3953 315.158 56.2015 314.521 56.8114C313.887 57.4182 313.037 57.7217 311.971 57.7217H310.25ZM311.011 51.9156V57.0333H311.98C312.831 57.0333 313.494 56.8053 313.968 56.3494C314.442 55.8935 314.679 55.2474 314.679 54.4111C314.679 52.7474 313.795 51.9156 312.025 51.9156H311.011ZM322.022 57.7217H318.58V51.2273H321.877V51.9156H319.34V54.0759H321.686V54.7598H319.34V57.0333H322.022V57.7217ZM334.125 57.7217H333.219L332.132 55.9011C332.032 55.732 331.936 55.5886 331.842 55.4708C331.749 55.3501 331.652 55.2519 331.552 55.1764C331.456 55.101 331.35 55.0466 331.235 55.0134C331.124 54.9772 330.997 54.9591 330.855 54.9591H330.23V57.7217H329.469V51.2273H331.407C331.691 51.2273 331.952 51.2635 332.191 51.3359C332.432 51.4054 332.641 51.5126 332.816 51.6575C332.994 51.8024 333.133 51.9836 333.233 52.201C333.332 52.4153 333.382 52.6674 333.382 52.9573C333.382 53.1837 333.347 53.3921 333.278 53.5823C333.211 53.7695 333.115 53.937 332.988 54.085C332.864 54.2329 332.713 54.3597 332.535 54.4654C332.36 54.5681 332.162 54.6481 331.942 54.7054V54.7236C332.05 54.7719 332.144 54.8277 332.223 54.8911C332.304 54.9515 332.381 55.024 332.454 55.1085C332.526 55.193 332.597 55.2897 332.666 55.3984C332.739 55.504 332.819 55.6278 332.906 55.7697L334.125 57.7217ZM330.23 51.9156V54.2707H331.262C331.453 54.2707 331.628 54.242 331.788 54.1846C331.951 54.1273 332.091 54.0457 332.209 53.9401C332.327 53.8314 332.419 53.7 332.485 53.546C332.552 53.389 332.585 53.2139 332.585 53.0207C332.585 52.6735 332.472 52.4033 332.245 52.21C332.022 52.0138 331.697 51.9156 331.272 51.9156H330.23ZM340.29 57.7217H336.848V51.2273H340.145V51.9156H337.608V54.0759H339.954V54.7598H337.608V57.0333H340.29V57.7217ZM343.062 57.459V56.5623C343.165 56.6529 343.287 56.7344 343.429 56.8068C343.574 56.8793 343.725 56.9412 343.882 56.9925C344.042 57.0408 344.202 57.0786 344.362 57.1058C344.522 57.1329 344.67 57.1465 344.806 57.1465C345.274 57.1465 345.623 57.0605 345.852 56.8884C346.085 56.7132 346.201 56.4626 346.201 56.1366C346.201 55.9615 346.162 55.809 346.083 55.6792C346.008 55.5493 345.902 55.4316 345.766 55.3259C345.63 55.2172 345.469 55.1145 345.281 55.0179C345.097 54.9183 344.898 54.8141 344.684 54.7054C344.457 54.5907 344.246 54.4745 344.05 54.3567C343.853 54.239 343.683 54.1091 343.538 53.9672C343.393 53.8253 343.278 53.6653 343.194 53.4872C343.112 53.306 343.071 53.0947 343.071 52.8531C343.071 52.5572 343.136 52.3006 343.266 52.0832C343.396 51.8628 343.566 51.6817 343.778 51.5397C343.989 51.3978 344.229 51.2922 344.498 51.2227C344.77 51.1533 345.046 51.1186 345.327 51.1186C345.967 51.1186 346.433 51.1956 346.726 51.3495V52.2055C346.343 51.9398 345.851 51.807 345.25 51.807C345.084 51.807 344.918 51.8251 344.752 51.8613C344.585 51.8945 344.438 51.9504 344.308 52.0289C344.178 52.1074 344.072 52.2085 343.991 52.3323C343.909 52.4561 343.868 52.6071 343.868 52.7852C343.868 52.9512 343.899 53.0947 343.959 53.2154C344.022 53.3362 344.114 53.4464 344.235 53.546C344.356 53.6457 344.502 53.7423 344.675 53.8359C344.85 53.9295 345.05 54.0321 345.277 54.1439C345.509 54.2586 345.73 54.3794 345.938 54.5062C346.146 54.633 346.329 54.7734 346.486 54.9274C346.643 55.0813 346.767 55.2519 346.857 55.4391C346.951 55.6263 346.998 55.8407 346.998 56.0822C346.998 56.4023 346.934 56.674 346.808 56.8974C346.684 57.1178 346.515 57.2975 346.3 57.4364C346.089 57.5752 345.844 57.6749 345.567 57.7353C345.289 57.7987 344.996 57.8304 344.688 57.8304C344.585 57.8304 344.459 57.8213 344.308 57.8032C344.157 57.7881 344.003 57.7639 343.846 57.7307C343.689 57.7005 343.539 57.6628 343.397 57.6175C343.258 57.5692 343.147 57.5164 343.062 57.459ZM354.87 55.0949C354.87 56.9186 354.047 57.8304 352.402 57.8304C350.826 57.8304 350.038 56.9533 350.038 55.1991V51.2273H350.799V55.1493C350.799 56.4808 351.36 57.1465 352.483 57.1465C353.567 57.1465 354.109 56.5034 354.109 55.2172V51.2273H354.87V55.0949ZM361.692 57.7217H358.322V51.2273H359.083V57.0333H361.692V57.7217ZM367.721 51.9156H365.846V57.7217H365.085V51.9156H363.214V51.2273H367.721V51.9156ZM374.963 57.7217H374.121L373.432 55.9011H370.679L370.031 57.7217H369.184L371.675 51.2273H372.463L374.963 57.7217ZM373.183 55.2172L372.164 52.4501C372.131 52.3595 372.098 52.2146 372.065 52.0153H372.047C372.016 52.1995 371.982 52.3444 371.942 52.4501L370.933 55.2172H373.183ZM377.749 57.7217V51.2273H379.543C381.832 51.2273 382.976 52.2825 382.976 54.3929C382.976 55.3953 382.657 56.2015 382.02 56.8114C381.386 57.4182 380.536 57.7217 379.47 57.7217H377.749ZM378.51 51.9156V57.0333H379.48C380.331 57.0333 380.994 56.8053 381.468 56.3494C381.942 55.8935 382.179 55.2474 382.179 54.4111C382.179 52.7474 381.294 51.9156 379.525 51.9156H378.51ZM388.697 57.8304C387.776 57.8304 387.038 57.5269 386.482 56.9201C385.93 56.3132 385.653 55.5237 385.653 54.5515C385.653 53.5068 385.936 52.6735 386.5 52.0515C387.065 51.4295 387.833 51.1186 388.806 51.1186C389.702 51.1186 390.424 51.4205 390.97 52.0243C391.52 52.6282 391.795 53.4177 391.795 54.3929C391.795 55.4527 391.514 56.2906 390.952 56.9065C390.391 57.5224 389.639 57.8304 388.697 57.8304ZM388.751 51.807C388.069 51.807 387.515 52.053 387.089 52.5452C386.663 53.0373 386.45 53.6834 386.45 54.4835C386.45 55.2836 386.657 55.9282 387.071 56.4174C387.488 56.9035 388.03 57.1465 388.697 57.1465C389.409 57.1465 389.971 56.914 390.382 56.4491C390.792 55.9841 390.997 55.3334 390.997 54.4971C390.997 53.6396 390.798 52.9769 390.4 52.5089C390.001 52.0409 389.452 51.807 388.751 51.807ZM394.594 57.459V56.5623C394.697 56.6529 394.819 56.7344 394.961 56.8068C395.106 56.8793 395.257 56.9412 395.414 56.9925C395.574 57.0408 395.734 57.0786 395.894 57.1058C396.054 57.1329 396.202 57.1465 396.338 57.1465C396.806 57.1465 397.155 57.0605 397.384 56.8884C397.617 56.7132 397.733 56.4626 397.733 56.1366C397.733 55.9615 397.694 55.809 397.615 55.6792C397.54 55.5493 397.434 55.4316 397.298 55.3259C397.162 55.2172 397.001 55.1145 396.814 55.0179C396.629 54.9183 396.43 54.8141 396.216 54.7054C395.989 54.5907 395.778 54.4745 395.582 54.3567C395.385 54.239 395.215 54.1091 395.07 53.9672C394.925 53.8253 394.81 53.6653 394.726 53.4872C394.644 53.306 394.604 53.0947 394.604 52.8531C394.604 52.5572 394.668 52.3006 394.798 52.0832C394.928 51.8628 395.099 51.6817 395.31 51.5397C395.521 51.3978 395.761 51.2922 396.03 51.2227C396.302 51.1533 396.578 51.1186 396.859 51.1186C397.499 51.1186 397.965 51.1956 398.258 51.3495V52.2055C397.875 51.9398 397.383 51.807 396.782 51.807C396.616 51.807 396.45 51.8251 396.284 51.8613C396.118 51.8945 395.97 51.9504 395.84 52.0289C395.71 52.1074 395.604 52.2085 395.523 52.3323C395.441 52.4561 395.401 52.6071 395.401 52.7852C395.401 52.9512 395.431 53.0947 395.491 53.2154C395.555 53.3362 395.647 53.4464 395.767 53.546C395.888 53.6457 396.035 53.7423 396.207 53.8359C396.382 53.9295 396.583 54.0321 396.809 54.1439C397.042 54.2586 397.262 54.3794 397.47 54.5062C397.679 54.633 397.861 54.7734 398.018 54.9274C398.175 55.0813 398.299 55.2519 398.39 55.4391C398.483 55.6263 398.53 55.8407 398.53 56.0822C398.53 56.4023 398.467 56.674 398.34 56.8974C398.216 57.1178 398.047 57.2975 397.833 57.4364C397.621 57.5752 397.377 57.6749 397.099 57.7353C396.821 57.7987 396.528 57.8304 396.22 57.8304C396.118 57.8304 395.991 57.8213 395.84 57.8032C395.689 57.7881 395.535 57.7639 395.378 57.7307C395.221 57.7005 395.071 57.6628 394.93 57.6175C394.791 57.5692 394.679 57.5164 394.594 57.459ZM409.465 57.7217H406.023V51.2273H409.32V51.9156H406.784V54.0759H409.13V54.7598H406.784V57.0333H409.465V57.7217ZM421.74 51.2273L419.335 57.7217H418.497L416.142 51.2273H416.989L418.787 56.3766C418.845 56.5427 418.888 56.7344 418.919 56.9518H418.937C418.961 56.7706 419.011 56.5759 419.086 56.3675L420.92 51.2273H421.74ZM427.941 57.7217H424.499V51.2273H427.796V51.9156H425.26V54.0759H427.606V54.7598H425.26V57.0333H427.941V57.7217ZM436.253 57.7217H435.32L431.977 52.5452C431.893 52.4153 431.823 52.2795 431.769 52.1376H431.742C431.766 52.2764 431.778 52.5738 431.778 53.0298V57.7217H431.017V51.2273H432.005L435.256 56.3223C435.392 56.5336 435.48 56.6785 435.519 56.757H435.537C435.507 56.5698 435.492 56.2513 435.492 55.8014V51.2273H436.253V57.7217ZM439.782 57.7217V51.2273H441.575C443.864 51.2273 445.008 52.2825 445.008 54.3929C445.008 55.3953 444.689 56.2015 444.052 56.8114C443.418 57.4182 442.568 57.7217 441.503 57.7217H439.782ZM440.543 51.9156V57.0333H441.512C442.363 57.0333 443.026 56.8053 443.5 56.3494C443.974 55.8935 444.211 55.2474 444.211 54.4111C444.211 52.7474 443.326 51.9156 441.557 51.9156H440.543ZM452.912 57.7217H452.07L451.381 55.9011H448.628L447.98 57.7217H447.133L449.624 51.2273H450.412L452.912 57.7217ZM451.132 55.2172L450.113 52.4501C450.08 52.3595 450.047 52.2146 450.013 52.0153H449.995C449.965 52.1995 449.93 52.3444 449.891 52.4501L448.881 55.2172H451.132ZM455.395 57.459V56.5623C455.497 56.6529 455.62 56.7344 455.762 56.8068C455.907 56.8793 456.057 56.9412 456.214 56.9925C456.375 57.0408 456.535 57.0786 456.695 57.1058C456.855 57.1329 457.003 57.1465 457.138 57.1465C457.606 57.1465 457.955 57.0605 458.185 56.8884C458.417 56.7132 458.533 56.4626 458.533 56.1366C458.533 55.9615 458.494 55.809 458.416 55.6792C458.34 55.5493 458.234 55.4316 458.098 55.3259C457.963 55.2172 457.801 55.1145 457.614 55.0179C457.43 54.9183 457.23 54.8141 457.016 54.7054C456.79 54.5907 456.578 54.4745 456.382 54.3567C456.186 54.239 456.015 54.1091 455.87 53.9672C455.725 53.8253 455.611 53.6653 455.526 53.4872C455.445 53.306 455.404 53.0947 455.404 52.8531C455.404 52.5572 455.469 52.3006 455.599 52.0832C455.728 51.8628 455.899 51.6817 456.11 51.5397C456.322 51.3978 456.562 51.2922 456.83 51.2227C457.102 51.1533 457.378 51.1186 457.659 51.1186C458.299 51.1186 458.766 51.1956 459.059 51.3495V52.2055C458.675 51.9398 458.183 51.807 457.582 51.807C457.416 51.807 457.25 51.8251 457.084 51.8613C456.918 51.8945 456.77 51.9504 456.64 52.0289C456.51 52.1074 456.405 52.2085 456.323 52.3323C456.242 52.4561 456.201 52.6071 456.201 52.7852C456.201 52.9512 456.231 53.0947 456.291 53.2154C456.355 53.3362 456.447 53.4464 456.568 53.546C456.689 53.6457 456.835 53.7423 457.007 53.8359C457.182 53.9295 457.383 54.0321 457.609 54.1439C457.842 54.2586 458.062 54.3794 458.271 54.5062C458.479 54.633 458.662 54.7734 458.819 54.9274C458.976 55.0813 459.099 55.2519 459.19 55.4391C459.284 55.6263 459.33 55.8407 459.33 56.0822C459.33 56.4023 459.267 56.674 459.14 56.8974C459.016 57.1178 458.847 57.2975 458.633 57.4364C458.422 57.5752 458.177 57.6749 457.899 57.7353C457.621 57.7987 457.329 57.8304 457.021 57.8304C456.918 57.8304 456.791 57.8213 456.64 57.8032C456.489 57.7881 456.335 57.7639 456.178 57.7307C456.021 57.7005 455.872 57.6628 455.73 57.6175C455.591 57.5692 455.479 57.5164 455.395 57.459Z" fill="#4E4E4E"/>
<path d="M123.174 44C122.59 44 122.051 43.8538 121.558 43.5613C121.081 43.2689 120.696 42.8841 120.404 42.407C120.112 41.9145 119.965 41.3758 119.965 40.7909V30.5865C119.965 30.0016 120.112 29.4706 120.404 28.9934C120.696 28.5009 121.081 28.1084 121.558 27.816C122.051 27.5236 122.59 27.3774 123.174 27.3774H133.379C133.964 27.3774 134.495 27.5236 134.972 27.816C135.464 28.1084 135.857 28.5009 136.149 28.9934C136.442 29.4706 136.588 30.0016 136.588 30.5865V40.7909C136.588 41.3758 136.442 41.9145 136.149 42.407C135.857 42.8841 135.464 43.2689 134.972 43.5613C134.495 43.8538 133.964 44 133.379 44H123.174ZM123.29 40.9294H133.217C133.294 40.9294 133.363 40.9063 133.425 40.8602C133.487 40.7986 133.517 40.7293 133.517 40.6524V30.725C133.517 30.648 133.487 30.5865 133.425 30.5403C133.363 30.4787 133.294 30.4479 133.217 30.4479H123.29C123.213 30.4479 123.144 30.4787 123.082 30.5403C123.036 30.5865 123.013 30.648 123.013 30.725V40.6524C123.013 40.7293 123.036 40.7986 123.082 40.8602C123.144 40.9063 123.213 40.9294 123.29 40.9294ZM139.314 44V27.3543H142.361V40.9294H155.936V44H139.314ZM157.119 44V27.3774H160.144V44H157.119ZM165.68 44C165.096 44 164.557 43.8538 164.064 43.5613C163.587 43.2689 163.202 42.8841 162.91 42.407C162.618 41.9145 162.471 41.3758 162.471 40.7909V39.5211H165.519V40.6524C165.519 40.7293 165.542 40.7986 165.588 40.8602C165.65 40.9063 165.719 40.9294 165.796 40.9294H175.746C175.823 40.9294 175.885 40.9063 175.931 40.8602C175.993 40.7986 176.023 40.7293 176.023 40.6524V37.4895C176.023 37.4125 175.993 37.3509 175.931 37.3048C175.885 37.2586 175.823 37.2355 175.746 37.2355H165.68C165.096 37.2355 164.557 37.0893 164.064 36.7969C163.587 36.5044 163.202 36.1196 162.91 35.6425C162.618 35.15 162.471 34.6036 162.471 34.0033V30.5865C162.471 30.0016 162.618 29.4706 162.91 28.9934C163.202 28.5009 163.587 28.1084 164.064 27.816C164.557 27.5236 165.096 27.3774 165.68 27.3774H175.885C176.47 27.3774 177.001 27.5236 177.478 27.816C177.97 28.1084 178.363 28.5009 178.655 28.9934C178.948 29.4706 179.094 30.0016 179.094 30.5865V31.8562H176.023V30.725C176.023 30.648 175.993 30.5865 175.931 30.5403C175.885 30.4787 175.823 30.4479 175.746 30.4479H165.796C165.719 30.4479 165.65 30.4787 165.588 30.5403C165.542 30.5865 165.519 30.648 165.519 30.725V33.8879C165.519 33.9649 165.542 34.0264 165.588 34.0726C165.65 34.1188 165.719 34.1419 165.796 34.1419H175.885C176.47 34.1419 177.001 34.2881 177.478 34.5805C177.97 34.8729 178.363 35.2654 178.655 35.7579C178.948 36.2351 179.094 36.7738 179.094 37.374V40.7909C179.094 41.3758 178.948 41.9145 178.655 42.407C178.363 42.8841 177.97 43.2689 177.478 43.5613C177.001 43.8538 176.47 44 175.885 44H165.68ZM187.731 44V30.4479H180.944V27.3774H197.566V30.4479H190.802V44H187.731ZM133.17 57C132.915 57 132.684 56.9363 132.476 56.8089C132.268 56.6814 132.1 56.5138 131.973 56.3059C131.845 56.098 131.782 55.8666 131.782 55.6117V52.5535C131.782 52.2986 131.845 52.0672 131.973 51.8593C132.1 51.6514 132.268 51.4838 132.476 51.3563C132.684 51.2289 132.915 51.1652 133.17 51.1652H136.319C136.573 51.1652 136.805 51.2289 137.013 51.3563C137.227 51.4838 137.395 51.6514 137.516 51.8593C137.643 52.0672 137.707 52.2986 137.707 52.5535V54.7466H133.099V55.5614C133.099 55.595 133.109 55.6251 133.13 55.652C133.156 55.6721 133.187 55.6821 133.22 55.6821H137.707V57H133.17ZM133.099 53.5595H136.389V52.6038C136.389 52.5702 136.376 52.5434 136.349 52.5233C136.329 52.4965 136.302 52.4831 136.268 52.4831H133.22C133.187 52.4831 133.156 52.4965 133.13 52.5233C133.109 52.5434 133.099 52.5702 133.099 52.6038V53.5595ZM140.06 57C139.805 57 139.573 56.9363 139.366 56.8089C139.158 56.6814 138.99 56.5138 138.863 56.3059C138.735 56.098 138.671 55.8666 138.671 55.6117V52.5535C138.671 52.2986 138.735 52.0672 138.863 51.8593C138.99 51.6514 139.158 51.4838 139.366 51.3563C139.573 51.2289 139.805 51.1652 140.06 51.1652H144.587V52.4831H140.11C140.076 52.4831 140.046 52.4965 140.019 52.5233C139.999 52.5434 139.989 52.5702 139.989 52.6038V55.5614C139.989 55.595 139.999 55.6251 140.019 55.652C140.046 55.6721 140.076 55.6821 140.11 55.6821H144.597V57H140.06ZM147.146 57C146.891 57 146.66 56.9363 146.452 56.8089C146.244 56.6814 146.076 56.5138 145.949 56.3059C145.822 56.098 145.758 55.8666 145.758 55.6117V52.5535C145.758 52.2986 145.822 52.0672 145.949 51.8593C146.076 51.6514 146.244 51.4838 146.452 51.3563C146.66 51.2289 146.891 51.1652 147.146 51.1652H150.295C150.55 51.1652 150.781 51.2289 150.989 51.3563C151.204 51.4838 151.371 51.6514 151.492 51.8593C151.619 52.0672 151.683 52.2986 151.683 52.5535V55.6117C151.683 55.8666 151.619 56.098 151.492 56.3059C151.371 56.5138 151.207 56.6814 150.999 56.8089C150.791 56.9363 150.556 57 150.295 57H147.146ZM147.196 55.6821H150.245C150.278 55.6821 150.305 55.6721 150.325 55.652C150.352 55.6251 150.365 55.595 150.365 55.5614V52.6038C150.365 52.5702 150.352 52.5434 150.325 52.5233C150.305 52.4965 150.278 52.4831 150.245 52.4831H147.196C147.163 52.4831 147.133 52.4965 147.106 52.5233C147.086 52.5434 147.076 52.5702 147.076 52.6038V55.5614C147.076 55.595 147.086 55.6251 147.106 55.652C147.133 55.6721 147.163 55.6821 147.196 55.6821ZM152.914 57V51.1652H160.147C160.408 51.1652 160.643 51.2289 160.851 51.3563C161.059 51.4838 161.223 51.6514 161.344 51.8593C161.471 52.0672 161.535 52.2986 161.535 52.5535V57H160.227V52.6038C160.227 52.5702 160.214 52.5434 160.187 52.5233C160.16 52.4965 160.13 52.4831 160.097 52.4831H158.014C157.981 52.4831 157.95 52.4965 157.924 52.5233C157.903 52.5434 157.893 52.5702 157.893 52.6038V57H156.565V52.6038C156.565 52.5702 156.552 52.5434 156.525 52.5233C156.505 52.4965 156.478 52.4831 156.445 52.4831H154.352C154.319 52.4831 154.289 52.4965 154.262 52.5233C154.242 52.5434 154.232 52.5702 154.232 52.6038V57H152.914ZM162.476 57V51.1652H169.709C169.971 51.1652 170.205 51.2289 170.413 51.3563C170.621 51.4838 170.785 51.6514 170.906 51.8593C171.034 52.0672 171.097 52.2986 171.097 52.5535V57H169.789V52.6038C169.789 52.5702 169.776 52.5434 169.749 52.5233C169.722 52.4965 169.692 52.4831 169.659 52.4831H167.576C167.543 52.4831 167.513 52.4965 167.486 52.5233C167.466 52.5434 167.456 52.5702 167.456 52.6038V57H166.128V52.6038C166.128 52.5702 166.114 52.5434 166.087 52.5233C166.067 52.4965 166.04 52.4831 166.007 52.4831H163.914C163.881 52.4831 163.851 52.4965 163.824 52.5233C163.804 52.5434 163.794 52.5702 163.794 52.6038V57H162.476ZM173.553 57C173.298 57 173.067 56.9363 172.859 56.8089C172.651 56.6814 172.483 56.5138 172.356 56.3059C172.229 56.098 172.165 55.8666 172.165 55.6117V52.5535C172.165 52.2986 172.229 52.0672 172.356 51.8593C172.483 51.6514 172.651 51.4838 172.859 51.3563C173.067 51.2289 173.298 51.1652 173.553 51.1652H176.702C176.957 51.1652 177.188 51.2289 177.396 51.3563C177.611 51.4838 177.778 51.6514 177.899 51.8593C178.027 52.0672 178.09 52.2986 178.09 52.5535V54.7466H173.483V55.5614C173.483 55.595 173.493 55.6251 173.513 55.652C173.54 55.6721 173.57 55.6821 173.603 55.6821H178.09V57H173.553ZM173.483 53.5595H176.772V52.6038C176.772 52.5702 176.759 52.5434 176.732 52.5233C176.712 52.4965 176.685 52.4831 176.652 52.4831H173.603C173.57 52.4831 173.54 52.4965 173.513 52.5233C173.493 52.5434 173.483 52.5702 173.483 52.6038V53.5595ZM179.242 57V52.5535C179.242 52.2986 179.305 52.0672 179.433 51.8593C179.56 51.6514 179.728 51.4838 179.936 51.3563C180.15 51.2289 180.382 51.1652 180.63 51.1652H183.869V52.4831H180.68C180.647 52.4831 180.617 52.4965 180.59 52.5233C180.57 52.5434 180.56 52.5702 180.56 52.6038V57H179.242ZM186.036 57C185.781 57 185.55 56.9363 185.342 56.8089C185.134 56.6814 184.967 56.5138 184.839 56.3059C184.712 56.098 184.648 55.8666 184.648 55.6117V52.5535C184.648 52.2986 184.712 52.0672 184.839 51.8593C184.967 51.6514 185.134 51.4838 185.342 51.3563C185.55 51.2289 185.781 51.1652 186.036 51.1652H190.563V52.4831H186.087C186.053 52.4831 186.023 52.4965 185.996 52.5233C185.976 52.5434 185.966 52.5702 185.966 52.6038V55.5614C185.966 55.595 185.976 55.6251 185.996 55.652C186.023 55.6721 186.053 55.6821 186.087 55.6821H190.573V57H186.036ZM192.936 57C192.681 57 192.45 56.9363 192.242 56.8089C192.034 56.6814 191.866 56.5138 191.739 56.3059C191.611 56.098 191.548 55.8666 191.548 55.6117V52.5535C191.548 52.2986 191.611 52.0672 191.739 51.8593C191.866 51.6514 192.034 51.4838 192.242 51.3563C192.45 51.2289 192.681 51.1652 192.936 51.1652H196.085C196.34 51.1652 196.571 51.2289 196.779 51.3563C196.993 51.4838 197.161 51.6514 197.282 51.8593C197.409 52.0672 197.473 52.2986 197.473 52.5535V54.7466H192.866V55.5614C192.866 55.595 192.876 55.6251 192.896 55.652C192.923 55.6721 192.953 55.6821 192.986 55.6821H197.473V57H192.936ZM192.866 53.5595H196.155V52.6038C196.155 52.5702 196.142 52.5434 196.115 52.5233C196.095 52.4965 196.068 52.4831 196.034 52.4831H192.986C192.953 52.4831 192.923 52.4965 192.896 52.5233C192.876 52.5434 192.866 52.5702 192.866 52.6038V53.5595Z" fill="#0A4EE4"/>
<line x1="214.5" y1="23" x2="214.5" y2="65" stroke="#4E4E4E"/>
<path d="M0 0H99V720H0V241C0 219.461 17.4609 202 39 202H45.5C63.4493 202 78 187.449 78 169.5C78 151.551 63.4493 137 45.5 137H39C17.4609 137 0 119.539 0 98V0Z" fill="white"/>
<path d="M56.625 164.75L46 158.5L35.375 164.75V177.25L46 183.5L56.625 177.25V164.75Z" stroke="black" stroke-width="2" stroke-linejoin="round"/>
<path d="M46 169.75V174.75M51 167.25V174.75M41 172.25V174.75" stroke="black" stroke-width="2" stroke-linecap="round" stroke-linejoin="round"/>
<path d="M45.0625 305.688H48.8125V311.312L54.4375 305.688H58.1875C58.6848 305.688 59.1617 305.49 59.5133 305.138C59.865 304.787 60.0625 304.31 60.0625 303.812V288.812C60.0625 288.315 59.865 287.838 59.5133 287.487C59.1617 287.135 58.6848 286.938 58.1875 286.938H43.1875C42.6902 286.938 42.2133 287.135 41.8617 287.487C41.51 287.838 41.3125 288.315 41.3125 288.812M32.875 294.438C32.875 295.432 33.2701 296.386 33.9733 297.089C34.6766 297.792 35.6304 298.188 36.625 298.188C37.6196 298.188 38.5734 297.792 39.2767 297.089C39.9799 296.386 40.375 295.432 40.375 294.438C40.375 293.443 39.9799 292.489 39.2767 291.786C38.5734 291.083 37.6196 290.688 36.625 290.688C35.6304 290.688 34.6766 291.083 33.9733 291.786C33.2701 292.489 32.875 293.443 32.875 294.438Z" stroke="black" stroke-width="1.5" stroke-linecap="round" stroke-linejoin="round"/>
<path d="M53.8588 292.97L50.2338 297.813C50.1531 297.92 50.0504 298.009 49.9325 298.073C49.8146 298.137 49.6842 298.175 49.5503 298.185C49.4164 298.194 49.282 298.175 49.1562 298.128C49.0304 298.081 48.9162 298.007 48.8212 297.913L46.9462 296.038M41.3125 307.563V304.75C41.3125 303.507 40.8186 302.315 39.9396 301.435C39.0605 300.556 37.8682 300.063 36.625 300.063C35.3818 300.063 34.1895 300.556 33.3104 301.435C32.4314 302.315 31.9375 303.507 31.9375 304.75V307.563H33.8125L34.75 315.063H38.5L39.4375 307.563H41.3125Z" stroke="black" stroke-width="1.5" stroke-linecap="round" stroke-linejoin="round"/>
<path d="M44.9328 361.723V352.607M46 370.211C48.1428 372.354 52.4285 374.571 57.7857 374.571M36.8221 379.909L36.8243 378.139C36.8307 376.446 36.4535 374.762 35.5621 373.32C33.9443 370.701 32.6071 368.983 32.6071 363.857C32.6071 359.096 34.3043 355.847 37.4157 354.107M55.9214 370.768V369.471L57.6035 369.429C57.8803 369.429 58.153 369.363 58.3986 369.235C58.6441 369.108 58.8551 368.923 59.0135 368.696C60.1171 367.121 55.6193 363.302 55.3 361.007C54.7964 357.394 52.9364 355.142 50.3971 353.889M49.7178 377.25V379.909" stroke="black" stroke-linecap="round" stroke-linejoin="round"/>
<path d="M44.9328 370.286C47.6757 370.286 49.2185 368.743 49.2185 366C49.2185 363.257 47.6757 361.714 44.9328 361.714C42.19 361.714 40.6471 363.257 40.6471 366C40.6471 368.743 42.19 370.286 44.9328 370.286Z" stroke="black" stroke-linecap="round" stroke-linejoin="round"/>
<path d="M46 247.25L56.1638 241.99C56.5588 241.785 56.7562 241.684 56.9 241.532C57.0273 241.4 57.1238 241.241 57.1825 241.066C57.25 240.867 57.25 240.646 57.25 240.201V230.416M46 247.25L35.8362 241.99C35.4412 241.785 35.2437 241.684 35.1 241.532C34.9727 241.4 34.8762 241.241 34.8175 241.066C34.75 240.867 34.75 240.645 34.75 240.199V230.416M46 247.25V235.921M57.25 230.416L46 235.921M57.25 230.416L51.625 227.504M34.75 230.416L45.0863 225.067C45.4213 224.895 45.5875 224.807 45.7637 224.774C45.9198 224.744 46.0802 224.744 46.2363 224.774C46.4113 224.807 46.5787 224.895 46.9125 225.067L51.625 227.504M34.75 230.416L40.375 233.17M46 235.921L40.375 233.169M51.625 227.504L40.375 233.169M40.375 233.169V235.921" stroke="black" stroke-width="1.5" stroke-linecap="round" stroke-linejoin="round"/>
<g filter="url(#filter0_d_1_24)">
<rect x="118" y="81" width="266" height="103" rx="12" fill="#FCFBFC"/>
</g>
<path d="M118 99.5865C121.314 99.5865 124 102.273 124 105.586V159.414C124 162.727 121.314 165.414 118 165.414V99.5865Z" fill="#0A4EE4"/>
<g filter="url(#filter1_d_1_24)">
<rect x="403" y="81" width="266" height="103" rx="12" fill="#FCFBFC"/>
</g>
<path d="M403 99.5865C406.314 99.5865 409 102.273 409 105.586V159.414C409 162.727 406.314 165.414 403 165.414V99.5865Z" fill="#0A4EE4"/>
<g filter="url(#filter2_d_1_24)">
<rect x="688" y="81" width="266" height="103" rx="12" fill="#FCFBFC"/>
</g>
<path d="M688 99.5865C691.314 99.5865 694 102.273 694 105.586V159.414C694 162.727 691.314 165.414 688 165.414V99.5865Z" fill="#0A4EE4"/>
<g filter="url(#filter3_d_1_24)">
<rect x="973" y="81" width="266" height="103" rx="12" fill="#FCFBFC"/>
</g>
<path d="M973 99.5865C976.314 99.5865 979 102.273 979 105.586V159.414C979 162.727 976.314 165.414 973 165.414V99.5865Z" fill="#0A4EE4"/>
<path d="M358.938 121.125H355.812C355.094 121.125 354.383 121.266 353.72 121.541C353.056 121.816 352.453 122.219 351.946 122.727C351.438 123.235 351.035 123.837 350.76 124.501C350.485 125.164 350.344 125.876 350.344 126.594C350.344 127.312 350.485 128.023 350.76 128.687C351.035 129.35 351.438 129.953 351.946 130.461C352.453 130.969 353.056 131.371 353.72 131.646C354.383 131.921 355.094 132.063 355.812 132.062H358.938V136.75H351.906V139.875H358.938V143H362.062V139.875H365.188C366.638 139.875 368.029 139.299 369.054 138.273C370.08 137.248 370.656 135.857 370.656 134.406C370.656 132.956 370.08 131.565 369.054 130.539C368.029 129.514 366.638 128.938 365.188 128.938H362.062V124.25H369.094V121.125H362.062V118H358.938V121.125ZM362.062 132.062H365.188C365.809 132.062 366.405 132.309 366.845 132.749C367.284 133.189 367.531 133.785 367.531 134.406C367.531 135.028 367.284 135.624 366.845 136.064C366.405 136.503 365.809 136.75 365.188 136.75H362.062V132.062ZM358.938 128.938H355.812C355.505 128.938 355.2 128.877 354.916 128.759C354.631 128.641 354.373 128.469 354.155 128.251C353.938 128.033 353.765 127.775 353.647 127.491C353.529 127.206 353.469 126.902 353.469 126.594C353.469 126.286 353.529 125.981 353.647 125.697C353.765 125.412 353.938 125.154 354.155 124.936C354.373 124.719 354.631 124.546 354.916 124.428C355.2 124.311 355.505 124.25 355.812 124.25H358.938V128.938Z" fill="black"/>
<path d="M642.938 124.25V125.812H638.25V124.25H642.938ZM638.25 128.938V127.375H642.938V128.938H638.25ZM638.25 132.062V130.5H641.375V132.062H638.25ZM636.688 124.25V125.812H635.125V124.25H636.688ZM636.688 127.375V128.938H635.125V127.375H636.688ZM635.125 132.062V130.5H636.688V132.062H635.125ZM633.562 119.562V141.438H641.375V143H632V118H645.611L652.312 124.702V127.375H650.75V125.812H644.5V119.562H633.562ZM646.062 120.673V124.25H649.639L646.062 120.673ZM653.875 130.5H657V143H642.938V130.5H646.062V128.938H647.625V130.5H652.312V128.938H653.875V130.5ZM655.438 141.438V135.188H644.5V141.438H655.438ZM655.438 133.625V132.062H644.5V133.625H655.438Z" fill="black"/>
<path d="M929.5 120.25C929.275 120.25 929.05 120.363 928.825 120.475L919.938 125.425C919.6 125.65 919.375 125.987 919.375 126.438V136.562C919.375 137.013 919.6 137.35 919.938 137.575L928.825 142.525C929.05 142.637 929.275 142.75 929.5 142.75C929.725 142.75 929.95 142.637 930.175 142.525L931.188 141.962C930.85 141.287 930.738 140.5 930.625 139.712V132.175L937.375 128.35V132.625C938.162 132.625 938.95 132.738 939.625 132.963V126.438C939.625 125.987 939.4 125.65 939.062 125.425L930.175 120.475C929.95 120.363 929.725 120.25 929.5 120.25ZM929.5 122.725L936.25 126.438L934 127.675L927.363 123.85L929.5 122.725ZM925.113 125.088L931.75 129.025L929.5 130.262L922.75 126.438L925.113 125.088ZM921.625 128.35L928.375 132.175V139.712L921.625 135.887V128.35ZM939.962 135.775L935.913 139.825L934.113 138.025L932.875 139.375L936.025 142.75L941.425 137.35L939.962 135.775Z" fill="black"/>
<path fill-rule="evenodd" clip-rule="evenodd" d="M1218.12 122.219H1212.88C1212.72 123.03 1212.32 123.774 1211.73 124.359C1211.15 124.944 1210.4 125.344 1209.59 125.509V126.241C1210.4 126.406 1211.15 126.806 1211.73 127.391C1212.32 127.976 1212.72 128.72 1212.88 129.531H1218.12C1218.28 128.72 1218.68 127.976 1219.27 127.391C1219.85 126.806 1220.6 126.406 1221.41 126.241V125.509C1220.6 125.344 1219.85 124.944 1219.27 124.359C1218.68 123.774 1218.28 123.03 1218.12 122.219ZM1218.8 120.535C1218.49 120.532 1218.16 120.53 1217.81 120.531H1213.19C1212.84 120.531 1212.51 120.532 1212.2 120.535C1212.14 120.531 1212.08 120.532 1212.02 120.538C1211.51 120.547 1211.06 120.568 1210.67 120.621C1209.96 120.716 1209.32 120.925 1208.81 121.437C1208.3 121.95 1208.09 122.588 1208 123.293C1207.94 123.686 1207.92 124.137 1207.91 124.645C1207.91 124.706 1207.91 124.768 1207.91 124.829C1207.91 125.139 1207.91 125.468 1207.91 125.816V125.933C1207.91 126.282 1207.91 126.611 1207.91 126.921C1207.91 126.982 1207.91 127.044 1207.91 127.105C1207.92 127.614 1207.94 128.064 1208 128.456C1208.09 129.162 1208.3 129.8 1208.81 130.312C1209.32 130.825 1209.96 131.034 1210.67 131.129C1211.06 131.182 1211.51 131.203 1212.02 131.212C1212.08 131.218 1212.14 131.219 1212.2 131.215C1212.51 131.218 1212.84 131.22 1213.19 131.219H1217.81C1218.16 131.219 1218.49 131.218 1218.8 131.215C1218.86 131.219 1218.92 131.218 1218.98 131.212C1219.49 131.203 1219.94 131.182 1220.33 131.129C1221.04 131.034 1221.68 130.825 1222.19 130.312C1222.7 129.8 1222.91 129.162 1223 128.456C1223.06 128.007 1223.08 127.556 1223.09 127.105C1223.09 127.044 1223.09 126.982 1223.09 126.921C1223.09 126.611 1223.09 126.282 1223.09 125.933V125.816C1223.09 125.468 1223.09 125.139 1223.09 124.829C1223.09 124.768 1223.09 124.706 1223.09 124.645C1223.08 124.194 1223.06 123.743 1223 123.294C1222.91 122.588 1222.7 121.95 1222.19 121.438C1221.68 120.925 1221.04 120.716 1220.33 120.621C1219.88 120.569 1219.43 120.541 1218.98 120.538C1218.92 120.532 1218.86 120.531 1218.8 120.535ZM1219.88 122.268C1220.01 122.605 1220.21 122.91 1220.46 123.165C1220.71 123.419 1221.02 123.617 1221.36 123.744C1221.35 123.669 1221.34 123.594 1221.33 123.519C1221.26 123 1221.14 122.777 1220.99 122.631C1220.85 122.484 1220.63 122.364 1220.11 122.293C1220.03 122.283 1219.96 122.275 1219.88 122.268M1221.36 128.006C1221.02 128.133 1220.72 128.331 1220.46 128.585C1220.21 128.84 1220.01 129.145 1219.88 129.482C1219.96 129.474 1220.04 129.466 1220.11 129.457C1220.63 129.386 1220.85 129.266 1221 129.119C1221.14 128.973 1221.26 128.75 1221.33 128.231C1221.34 128.159 1221.35 128.084 1221.36 128.006ZM1211.12 129.482C1210.99 129.145 1210.8 128.84 1210.54 128.585C1210.29 128.331 1209.98 128.133 1209.64 128.006C1209.65 128.084 1209.66 128.159 1209.67 128.231C1209.74 128.75 1209.86 128.973 1210.01 129.119C1210.16 129.266 1210.38 129.386 1210.89 129.457C1210.97 129.466 1211.04 129.474 1211.12 129.482ZM1209.64 123.744C1209.98 123.617 1210.29 123.419 1210.54 123.165C1210.8 122.91 1210.99 122.605 1211.12 122.268C1211.04 122.276 1210.97 122.284 1210.9 122.294C1210.38 122.364 1210.15 122.484 1210.01 122.632C1209.86 122.779 1209.74 123 1209.67 123.518L1209.64 123.744ZM1215.5 125.594C1215.43 125.594 1215.35 125.623 1215.3 125.676C1215.25 125.729 1215.22 125.8 1215.22 125.875C1215.22 125.95 1215.25 126.021 1215.3 126.074C1215.35 126.127 1215.43 126.156 1215.5 126.156C1215.57 126.156 1215.65 126.127 1215.7 126.074C1215.75 126.021 1215.78 125.95 1215.78 125.875C1215.78 125.8 1215.75 125.729 1215.7 125.676C1215.65 125.623 1215.57 125.594 1215.5 125.594ZM1213.53 125.875C1213.53 125.353 1213.74 124.852 1214.11 124.483C1214.48 124.114 1214.98 123.906 1215.5 123.906C1216.02 123.906 1216.52 124.114 1216.89 124.483C1217.26 124.852 1217.47 125.353 1217.47 125.875C1217.47 126.397 1217.26 126.898 1216.89 127.267C1216.52 127.636 1216.02 127.844 1215.5 127.844C1214.98 127.844 1214.48 127.636 1214.11 127.267C1213.74 126.898 1213.53 126.397 1213.53 125.875ZM1211.77 134.254C1213.87 133.848 1216.12 133.939 1217.93 135.024C1218.19 135.175 1218.43 135.366 1218.64 135.6C1219.06 136.075 1219.28 136.665 1219.29 137.257C1219.5 137.117 1219.72 136.964 1219.94 136.799L1221.97 135.263C1222.48 134.889 1223.1 134.687 1223.73 134.687C1224.36 134.687 1224.98 134.889 1225.49 135.263C1226.43 135.972 1226.8 137.247 1226.13 138.327C1225.65 139.093 1224.93 140.153 1224.2 140.833C1223.45 141.519 1222.4 142.097 1221.6 142.482C1220.63 142.95 1219.59 143.209 1218.57 143.373C1216.49 143.711 1214.32 143.659 1212.27 143.235C1211.21 143.017 1210.13 142.906 1209.04 142.905H1206.5C1206.28 142.905 1206.06 142.816 1205.9 142.658C1205.75 142.5 1205.66 142.285 1205.66 142.062C1205.66 141.838 1205.75 141.623 1205.9 141.465C1206.06 141.307 1206.28 141.218 1206.5 141.218H1209.04C1210.24 141.218 1211.44 141.343 1212.61 141.582C1214.48 141.967 1216.41 142.009 1218.3 141.707C1219.23 141.556 1220.1 141.332 1220.87 140.962C1221.64 140.591 1222.5 140.103 1223.05 139.595C1223.6 139.081 1224.22 138.192 1224.7 137.433C1224.84 137.204 1224.82 136.874 1224.47 136.61C1224.05 136.295 1223.4 136.295 1222.99 136.61L1220.96 138.145C1220.14 138.758 1219.14 139.414 1217.91 139.612C1217.78 139.633 1217.65 139.651 1217.52 139.666C1217.45 139.678 1217.38 139.685 1217.31 139.689C1216.59 139.759 1215.86 139.759 1215.14 139.689C1215.03 139.681 1214.92 139.65 1214.82 139.599C1214.72 139.548 1214.63 139.478 1214.56 139.392C1214.49 139.306 1214.43 139.207 1214.4 139.1C1214.36 138.993 1214.35 138.88 1214.36 138.768C1214.37 138.656 1214.41 138.548 1214.46 138.449C1214.51 138.35 1214.58 138.262 1214.67 138.191C1214.76 138.121 1214.86 138.068 1214.97 138.037C1215.08 138.006 1215.19 137.996 1215.3 138.009C1215.92 138.07 1216.55 138.069 1217.18 138.006L1217.21 138.003C1217.31 137.937 1217.4 137.85 1217.47 137.746C1217.54 137.642 1217.58 137.525 1217.6 137.402C1217.61 137.28 1217.6 137.155 1217.56 137.038C1217.53 136.92 1217.46 136.812 1217.38 136.722C1217.29 136.624 1217.18 136.54 1217.07 136.473C1215.74 135.679 1213.97 135.548 1212.09 135.91C1210.26 136.278 1208.52 137.019 1206.99 138.087C1206.9 138.151 1206.8 138.197 1206.69 138.221C1206.58 138.246 1206.47 138.249 1206.36 138.23C1206.25 138.212 1206.14 138.172 1206.05 138.113C1205.96 138.054 1205.88 137.977 1205.81 137.887C1205.75 137.796 1205.7 137.694 1205.68 137.586C1205.65 137.478 1205.65 137.366 1205.67 137.257C1205.71 137.036 1205.83 136.839 1206.01 136.71C1207.74 135.503 1209.7 134.667 1211.77 134.254Z" fill="black"/>
<defs>
<filter id="filter0_d_1_24" x="102" y="69" width="298" height="135" filterUnits="userSpaceOnUse" color-interpolation-filters="sRGB">
<feFlood flood-opacity="0" result="BackgroundImageFix"/>
<feColorMatrix in="SourceAlpha" type="matrix" values="0 0 0 0 0 0 0 0 0 0 0 0 0 0 0 0 0 0 127 0" result="hardAlpha"/>
<feOffset dy="4"/>
<feGaussianBlur stdDeviation="8"/>
<feComposite in2="hardAlpha" operator="out"/>
<feColorMatrix type="matrix" values="0 0 0 0 0 0 0 0 0 0 0 0 0 0 0 0 0 0 0.16 0"/>
<feBlend mode="normal" in2="BackgroundImageFix" result="effect1_dropShadow_1_24"/>
<feBlend mode="normal" in="SourceGraphic" in2="effect1_dropShadow_1_24" result="shape"/>
</filter>
<filter id="filter1_d_1_24" x="387" y="69" width="298" height="135" filterUnits="userSpaceOnUse" color-interpolation-filters="sRGB">
<feFlood flood-opacity="0" result="BackgroundImageFix"/>
<feColorMatrix in="SourceAlpha" type="matrix" values="0 0 0 0 0 0 0 0 0 0 0 0 0 0 0 0 0 0 127 0" result="hardAlpha"/>
<feOffset dy="4"/>
<feGaussianBlur stdDeviation="8"/>
<feComposite in2="hardAlpha" operator="out"/>
<feColorMatrix type="matrix" values="0 0 0 0 0 0 0 0 0 0 0 0 0 0 0 0 0 0 0.16 0"/>
<feBlend mode="normal" in2="BackgroundImageFix" result="effect1_dropShadow_1_24"/>
<feBlend mode="normal" in="SourceGraphic" in2="effect1_dropShadow_1_24" result="shape"/>
</filter>
<filter id="filter2_d_1_24" x="672" y="69" width="298" height="135" filterUnits="userSpaceOnUse" color-interpolation-filters="sRGB">
<feFlood flood-opacity="0" result="BackgroundImageFix"/>
<feColorMatrix in="SourceAlpha" type="matrix" values="0 0 0 0 0 0 0 0 0 0 0 0 0 0 0 0 0 0 127 0" result="hardAlpha"/>
<feOffset dy="4"/>
<feGaussianBlur stdDeviation="8"/>
<feComposite in2="hardAlpha" operator="out"/>
<feColorMatrix type="matrix" values="0 0 0 0 0 0 0 0 0 0 0 0 0 0 0 0 0 0 0.16 0"/>
<feBlend mode="normal" in2="BackgroundImageFix" result="effect1_dropShadow_1_24"/>
<feBlend mode="normal" in="SourceGraphic" in2="effect1_dropShadow_1_24" result="shape"/>
</filter>
<filter id="filter3_d_1_24" x="957" y="69" width="298" height="135" filterUnits="userSpaceOnUse" color-interpolation-filters="sRGB">
<feFlood flood-opacity="0" result="BackgroundImageFix"/>
<feColorMatrix in="SourceAlpha" type="matrix" values="0 0 0 0 0 0 0 0 0 0 0 0 0 0 0 0 0 0 127 0" result="hardAlpha"/>
<feOffset dy="4"/>
<feGaussianBlur stdDeviation="8"/>
<feComposite in2="hardAlpha" operator="out"/>
<feColorMatrix type="matrix" values="0 0 0 0 0 0 0 0 0 0 0 0 0 0 0 0 0 0 0.16 0"/>
<feBlend mode="normal" in2="BackgroundImageFix" result="effect1_dropShadow_1_24"/>
<feBlend mode="normal" in="SourceGraphic" in2="effect1_dropShadow_1_24" result="shape"/>
</filter>
</defs>
</svg>
